<svg xmlns="http://www.w3.org/2000/svg" width="121.234" height="90.925" viewBox="0 0 121.234 90.925">
  <g id="Group_25" data-name="Group 25" transform="translate(-574.41 -3495.76)">
    <path id="envelope-solid" d="M109.868,15.154a11.366,11.366,0,0,1,6.819,20.458L65.163,74.256a7.6,7.6,0,0,1-9.093,0L4.546,35.612a11.366,11.366,0,0,1,6.819-20.458ZM51.524,80.317a15.131,15.131,0,0,0,18.185,0l51.524-38.643V90.925a15.168,15.168,0,0,1-15.154,15.154H15.154A15.161,15.161,0,0,1,0,90.925V41.674Z" transform="translate(574.41 3480.605)" fill="#2c425b"/>
  </g>
</svg>
