<svg xmlns="http://www.w3.org/2000/svg" xmlns:xlink="http://www.w3.org/1999/xlink" width="127.64" height="115.405" viewBox="0 0 127.64 115.405">
  <defs>
    <clipPath id="clip-path">
      <path id="Path_2" data-name="Path 2" d="M63.82,0c35.247,0,63.82,25.834,63.82,57.7s-28.573,57.7-63.82,57.7S0,89.57,0,57.7,28.573,0,63.82,0Z" transform="translate(542 3465)" fill="#2c425b" stroke="#707070" stroke-width="1"/>
    </clipPath>
  </defs>
  <g id="Group_27" data-name="Group 27" transform="translate(-1336.127 -3484.974)">
    <g id="Group_26" data-name="Group 26" transform="translate(794.127 19.974)">
      <g id="Mask_Group_1" data-name="Mask Group 1" clip-path="url(#clip-path)">
        <path id="github-brands" d="M39.589,94.833c0,.477-.549.859-1.241.859-.787.072-1.336-.31-1.336-.859,0-.477.549-.859,1.241-.859C38.969,93.9,39.589,94.284,39.589,94.833Zm-7.421-1.074c-.167.477.31,1.026,1.026,1.169a1.119,1.119,0,0,0,1.48-.477c.143-.477-.31-1.026-1.026-1.241a1.225,1.225,0,0,0-1.48.549Zm10.548-.406c-.692.167-1.169.62-1.1,1.169.072.477.692.787,1.408.62.692-.167,1.169-.62,1.1-1.1C44.052,93.592,43.407,93.282,42.715,93.353Zm15.7-91.444C25.319,1.909,0,27.037,0,60.136a59.828,59.828,0,0,0,40.448,57.081c3.055.549,4.128-1.336,4.128-2.887,0-1.48-.072-9.641-.072-14.652,0,0-16.7,3.579-20.212-7.111,0,0-2.72-6.944-6.634-8.734,0,0-5.465-3.747.382-3.675a12.6,12.6,0,0,1,9.211,6.157c5.226,9.211,13.984,6.562,17.4,4.987a13.263,13.263,0,0,1,3.818-8.042c-13.34-1.48-26.8-3.412-26.8-26.369,0-6.562,1.814-9.856,5.632-14.055-.62-1.551-2.649-7.946.62-16.2,4.987-1.551,16.466,6.443,16.466,6.443a56.375,56.375,0,0,1,29.972,0s11.478-8.018,16.466-6.443c3.269,8.281,1.241,14.652.62,16.2C95.262,47.058,97.6,50.352,97.6,56.89c0,23.028-14.055,24.866-27.4,26.369,2.2,1.885,4.057,5.465,4.057,11.073,0,8.042-.072,17.993-.072,19.95,0,1.551,1.1,3.436,4.128,2.887,23.863-7.923,40.043-30.569,40.043-57.033C118.362,27.037,91.516,1.909,58.417,1.909ZM23.2,84.214c-.31.239-.239.787.167,1.241.382.382.931.549,1.241.239.31-.239.239-.787-.167-1.241C24.054,84.07,23.505,83.9,23.2,84.214Zm-2.577-1.933c-.167.31.072.692.549.931a.71.71,0,0,0,1.026-.167c.167-.31-.072-.692-.549-.931C21.167,81.97,20.785,82.042,20.618,82.281Zm7.732,8.5c-.382.31-.239,1.026.31,1.48.549.549,1.241.62,1.551.239.31-.31.167-1.026-.31-1.48C29.376,90.466,28.66,90.394,28.35,90.776Zm-2.72-3.508c-.382.239-.382.859,0,1.408s1.026.787,1.336.549a1.088,1.088,0,0,0,0-1.48c-.334-.549-.955-.787-1.336-.477Z" transform="translate(546.639 3463.091)" fill="#2c425b"/>
      </g>
      <path id="phone-solid" d="M57.915,54.643,55.281,68.877c-.37,2.012-1.789,3.42-3.451,3.42C23.248,72.295,0,43.318,0,7.691a4.294,4.294,0,0,1,2.744-4.3L14.164.108c1.663-.48,3.363.6,4.054,2.559l5.27,15.321a5.162,5.162,0,0,1-1.017,5.147l-6.1,6.1c3.85,9.775,10.226,17.722,18.07,22.523l4.994-7.6A3.1,3.1,0,0,1,43.566,42.9l12.292,6.568A5.237,5.237,0,0,1,57.915,54.643Z" transform="translate(574.377 3480.295)" fill="#81a4cd"/>
    </g>
  </g>
</svg>
