<svg xmlns="http://www.w3.org/2000/svg" width="121.234" height="104.619" viewBox="0 0 121.234 104.619">
  <path id="linkedin-brands" d="M112.574,32H8.632C3.87,32,0,35.386,0,39.543v89.533c0,4.157,3.87,7.543,8.632,7.543H112.574c4.763,0,8.66-3.386,8.66-7.543V39.543C121.234,35.386,117.337,32,112.574,32ZM36.641,121.674H18.672V71.746h18v49.928ZM27.656,64.927c-5.764,0-10.419-4.04-10.419-8.991s4.655-8.991,10.419-8.991c5.737,0,10.419,4.04,10.419,8.991C38.075,60.91,33.42,64.927,27.656,64.927ZM104,121.674H86.027V97.387c0-5.791-.135-13.241-9.336-13.241-9.363,0-10.8,6.305-10.8,12.821v24.707H47.925V71.746H65.163v6.819h.244c2.408-3.923,8.281-8.057,17.021-8.057C100.613,70.508,104,80.853,104,94.3Z" transform="translate(0 -32)" fill="#2c425b"/>
</svg>
