<svg xmlns="http://www.w3.org/2000/svg" width="127.64" height="115.405" viewBox="0 0 127.64 115.405">
  <g id="Group_24" data-name="Group 24" transform="translate(-542 -3465)">
    <g id="Path_2" data-name="Path 2" transform="translate(542 3465)" fill="#2c425b">
      <path d="M 63.82003784179688 114.904670715332 C 55.26565551757812 114.904670715332 46.96782302856445 113.39013671875 39.15698623657227 110.4031219482422 C 35.40383911132812 108.9678344726562 31.78408813476562 107.1914520263672 28.39828872680664 105.1233215332031 C 25.0454216003418 103.0753021240234 21.89272117614746 100.7234649658203 19.02778816223145 98.13317108154297 C 16.16373825073242 95.54367065429688 13.5637378692627 92.69454956054688 11.30000495910645 89.66497039794922 C 9.015371322631836 86.60745239257812 7.053271293640137 83.33913421630859 5.468187808990479 79.95082092285156 C 2.17153787612915 72.90380096435547 0.5000045299530029 65.4183349609375 0.5000045299530029 57.70233535766602 C 0.5000045299530029 49.98633575439453 2.17153787612915 42.50086975097656 5.468187808990479 35.45385360717773 C 7.053271293640137 32.06553649902344 9.015371322631836 28.79721832275391 11.30000495910645 25.73970222473145 C 13.5637378692627 22.71011924743652 16.16373825073242 19.86100196838379 19.02778816223145 17.2715015411377 C 21.89272117614746 14.68120193481445 25.0454216003418 12.32936859130859 28.39828872680664 10.28135204315186 C 31.78408813476562 8.213218688964844 35.40383911132812 6.436835289001465 39.15698623657227 5.001552104949951 C 46.96782302856445 2.014535427093506 55.26565551757812 0.5000020265579224 63.82003784179688 0.5000020265579224 C 72.37442016601562 0.5000020265579224 80.67225646972656 2.014535427093506 88.48308563232422 5.001552104949951 C 92.23623657226562 6.436835289001465 95.85598754882812 8.213218688964844 99.24179077148438 10.28135204315186 C 102.5946578979492 12.32936859130859 105.7473526000977 14.68120193481445 108.6122894287109 17.2715015411377 C 111.4763412475586 19.86100196838379 114.0763397216797 22.71011924743652 116.3400726318359 25.73970222473145 C 118.6247024536133 28.79721832275391 120.5868072509766 32.06553649902344 122.1718902587891 35.45385360717773 C 125.4685363769531 42.50086975097656 127.1400680541992 49.98633575439453 127.1400680541992 57.70233535766602 C 127.1400680541992 65.4183349609375 125.4685363769531 72.90380096435547 122.1718902587891 79.95082092285156 C 120.5868072509766 83.33913421630859 118.6247024536133 86.60745239257812 116.3400726318359 89.66497039794922 C 114.0763397216797 92.69454956054688 111.4763412475586 95.54367065429688 108.6122894287109 98.13317108154297 C 105.7473526000977 100.7234649658203 102.5946578979492 103.0753021240234 99.24179077148438 105.1233215332031 C 95.85598754882812 107.1914520263672 92.23623657226562 108.9678344726562 88.48308563232422 110.4031219482422 C 80.67225646972656 113.39013671875 72.37442016601562 114.904670715332 63.82003784179688 114.904670715332 Z" stroke="none"/>
      <path d="M 63.82003784179688 1 C 55.32693481445312 1 47.08917236328125 2.503448486328125 39.33558654785156 5.46856689453125 C 35.61088562011719 6.892967224121094 32.01873779296875 8.655784606933594 28.65892028808594 10.70805358886719 C 25.33257293701172 12.7398681640625 22.20500183105469 15.07292175292969 19.36312103271484 17.64238739013672 C 16.52301788330078 20.21023559570312 13.94495391845703 23.03527069091797 11.70053863525391 26.03898620605469 C 9.436256408691406 29.06928253173828 7.491767883300781 32.30818176269531 5.921089172363281 35.66571807861328 C 2.655685424804688 42.64591979980469 1.000007629394531 50.06010437011719 1.000007629394531 57.70233535766602 C 1.000007629394531 65.34457397460938 2.655685424804688 72.75875091552734 5.921089172363281 79.73895263671875 C 7.491767883300781 83.09648132324219 9.436256408691406 86.33538818359375 11.70053863525391 89.36568450927734 C 13.94495391845703 92.36940002441406 16.52301788330078 95.19443511962891 19.36312103271484 97.76228332519531 C 22.20500183105469 100.3317489624023 25.33257293701172 102.6648025512695 28.65892028808594 104.6966171264648 C 32.01873779296875 106.7488861083984 35.61088562011719 108.5117034912109 39.33558654785156 109.9361038208008 C 47.08917236328125 112.9012222290039 55.32693481445312 114.404670715332 63.82003784179688 114.404670715332 C 72.31314086914062 114.404670715332 80.5509033203125 112.9012222290039 88.30448913574219 109.9361038208008 C 92.02919006347656 108.5117034912109 95.621337890625 106.7488861083984 98.98115539550781 104.6966171264648 C 102.307502746582 102.6648025512695 105.4350738525391 100.3317489624023 108.2769546508789 97.76228332519531 C 111.1170501708984 95.19443511962891 113.6951217651367 92.36940002441406 115.9395370483398 89.36568450927734 C 118.2038192749023 86.33538818359375 120.148307800293 83.09648132324219 121.7189865112305 79.73895263671875 C 124.9843902587891 72.75875091552734 126.6400680541992 65.34457397460938 126.6400680541992 57.70233535766602 C 126.6400680541992 50.06010437011719 124.9843902587891 42.64591979980469 121.7189865112305 35.66571807861328 C 120.148307800293 32.30818176269531 118.2038192749023 29.06928253173828 115.9395370483398 26.03898620605469 C 113.6951217651367 23.03527069091797 111.1170501708984 20.21023559570312 108.2769546508789 17.64238739013672 C 105.4350738525391 15.07292175292969 102.307502746582 12.7398681640625 98.98115539550781 10.70805358886719 C 95.621337890625 8.655784606933594 92.02919006347656 6.892967224121094 88.30448913574219 5.46856689453125 C 80.5509033203125 2.503448486328125 72.31314086914062 1 63.82003784179688 1 M 63.82003784179688 0 C 99.06687164306641 0 127.6400680541992 25.83422088623047 127.6400680541992 57.70233535766602 C 127.6400680541992 89.57044982910156 99.06687164306641 115.404670715332 63.82003784179688 115.404670715332 C 28.57320404052734 115.404670715332 7.62939453125e-06 89.57044982910156 7.62939453125e-06 57.70233535766602 C 7.62939453125e-06 25.83422088623047 28.57320404052734 0 63.82003784179688 0 Z" stroke="none" fill="#707070"/>
    </g>
    <path id="phone-solid" d="M57.915,54.643,55.281,68.877c-.37,2.012-1.789,3.42-3.451,3.42C23.248,72.295,0,43.318,0,7.691a4.294,4.294,0,0,1,2.744-4.3L14.164.108c1.663-.48,3.363.6,4.054,2.559l5.27,15.321a5.162,5.162,0,0,1-1.017,5.147l-6.1,6.1c3.85,9.775,10.226,17.722,18.07,22.523l4.994-7.6A3.1,3.1,0,0,1,43.566,42.9l12.292,6.568A5.237,5.237,0,0,1,57.915,54.643Z" transform="translate(574.377 3480.295)" fill="#81a4cd"/>
  </g>
</svg>
